<?xml version="1.0" encoding="UTF-8"?>
<svg fill="#363636" width="100pt" height="100pt" version="1.1" viewBox="0 0 100 100" xmlns="http://www.w3.org/2000/svg">
 <g>
  <path d="m37.945 44.453c-0.003906-1.8164-1.0977-3.4531-2.7773-4.1484-1.6797-0.69531-3.6094-0.3125-4.8945 0.97266-1.2852 1.2852-1.6719 3.2188-0.97656 4.8984 0.69922 1.6758 2.3359 2.7734 4.1523 2.7734 2.4805-0.003907 4.4922-2.0156 4.4961-4.4961zm-4.4961 2.4961c-1.0078 0-1.918-0.60938-2.3047-1.5391-0.38281-0.93359-0.17188-2.0039 0.54297-2.7188 0.71094-0.71484 1.7852-0.92578 2.7148-0.53906 0.93359 0.38281 1.5391 1.293 1.543 2.3008-0.003906 1.3789-1.1172 2.4922-2.4961 2.4961z"/>
  <path d="m33.453 37.363c4.4883-0.003906 8.125-3.6406 8.1328-8.1289 0-0.27344-0.011719-0.54688-0.039063-0.81641h-0.003906c-0.050781-0.53516-0.16016-1.0664-0.31641-1.5859-0.078124-0.25781-0.17187-0.51562-0.27734-0.76562h-0.003907c-1.1641-2.7617-3.7539-4.6562-6.7383-4.9336-2.9805-0.27734-5.875 1.1055-7.5312 3.6055-1.6562 2.4961-1.8047 5.6992-0.38672 8.3398 1.4141 2.6406 4.168 4.2852 7.1641 4.2852zm0-2c-0.37109 0-0.73828-0.035156-1.1055-0.10156-0.019531-0.003907-0.039062-0.003907-0.058594-0.007813-0.34375-0.066406-0.67969-0.16406-1.0078-0.28906-0.03125-0.011719-0.0625-0.019532-0.097656-0.035156-0.3125-0.125-0.61719-0.27734-0.90625-0.45703-0.039063-0.023437-0.078125-0.042968-0.11328-0.066406-0.28125-0.17969-0.55078-0.38672-0.79687-0.61328-0.023438-0.023438-0.050782-0.042969-0.074219-0.066407h-0.003907c-1.0156-2.6562-0.070312-5.6641 2.2852-7.2656 2.3555-1.5977 5.5-1.3672 7.5938 0.55859 0.011719 0.03125 0.023437 0.0625 0.035156 0.09375v0.003907c0.11719 0.3125 0.20703 0.63281 0.26953 0.96094 0.007813 0.035156 0.007813 0.066406 0.015625 0.10156 0.32031 1.7852-0.16797 3.6172-1.3359 5.0078-1.1641 1.3867-2.8867 2.1836-4.6992 2.1797zm0-12.27c0.66016 0.003906 1.3164 0.11328 1.9453 0.32812-0.125-0.003906-0.24609-0.019531-0.37109-0.019531-3.4805 0.007812-6.5703 2.2227-7.6953 5.5156 0.16797-3.2617 2.8594-5.8164 6.1211-5.8242z"/>
  <path d="m27.105 39.754c0-0.30078-0.019531-0.60156-0.050781-0.90234-0.054688-0.50781-0.16016-1.0117-0.30859-1.5-0.007813-0.027343-0.019532-0.054687-0.03125-0.082031-0.074219-0.23047-0.15234-0.45703-0.24609-0.68359v-0.003907 0.003907c-1.6211-3.8555-5.9023-5.8516-9.8984-4.625-3.9961 1.2305-6.4102 5.2891-5.5859 9.3906 0.82422 4.0977 4.6211 6.9062 8.7812 6.4922 4.1641-0.41016 7.3359-3.9062 7.3398-8.0898zm-8.1289 6.1328c-0.37109-0.003907-0.74219-0.039063-1.1055-0.10547-0.019532-0.003906-0.039063-0.003906-0.058594-0.007812-0.34375-0.066407-0.67969-0.16406-1.0078-0.28906-0.03125-0.011719-0.0625-0.019531-0.097657-0.035156-0.3125-0.125-0.61719-0.27734-0.90625-0.45703-0.039062-0.023438-0.078125-0.042969-0.11328-0.066407-0.28516-0.17969-0.55078-0.38672-0.80078-0.61328-0.023438-0.023438-0.050781-0.042969-0.074219-0.066406-1.0156-2.6562-0.070312-5.6641 2.2852-7.2656 2.3516-1.5977 5.4961-1.3672 7.5938 0.55859 0.011719 0.03125 0.023438 0.0625 0.035156 0.097657 0.11328 0.3125 0.20703 0.63281 0.26953 0.96094 0.007812 0.035156 0.011718 0.070313 0.015625 0.10547 0.0625 0.34766 0.09375 0.69922 0.09375 1.0508-0.003907 3.3828-2.7461 6.125-6.1289 6.1328zm0-12.27v-0.003907c0.66016 0.003907 1.3164 0.11328 1.9414 0.32812-0.125-0.003906-0.24609-0.019531-0.37109-0.019531-3.4766 0.007813-6.5703 2.2227-7.6953 5.5156 0.17188-3.2617 2.8594-5.8164 6.125-5.8242z"/>
  <path d="m32 53.605v-0.003907l-0.003906 0.003907c-1.6211-3.8555-5.8984-5.8516-9.8945-4.6211-3.9961 1.2305-6.4102 5.2891-5.5859 9.3867s4.6211 6.9062 8.7812 6.4922c4.1602-0.41016 7.332-3.9062 7.3398-8.0898-0.003907-0.30078-0.019531-0.60156-0.054688-0.90234-0.082031-0.77734-0.28125-1.5391-0.58203-2.2656zm-7.4922-2.9727-0.003906 0.003907c0.66016 0 1.3164 0.10938 1.9453 0.32422-0.125-0.003907-0.24609-0.019532-0.37109-0.019532-3.4805 0.007813-6.5703 2.2227-7.6953 5.5156 0.16797-3.2617 2.8594-5.8164 6.1211-5.8203zm0 12.27-0.003906 0.003906c-0.37109-0.003906-0.74219-0.035156-1.1055-0.10547-0.019532-0.003906-0.039063-0.003906-0.058594-0.007812-0.34375-0.066407-0.67969-0.16406-1.0078-0.28906-0.03125-0.011718-0.0625-0.019531-0.09375-0.035156l-0.003906 0.003906c-0.3125-0.12891-0.61719-0.28125-0.90625-0.46094-0.035156-0.023438-0.074219-0.042969-0.10938-0.066407h-0.003906c-0.28125-0.17969-0.55078-0.38672-0.80078-0.61328-0.023437-0.019531-0.046874-0.042969-0.070312-0.0625l-0.003906-0.003906c-1.0156-2.6562-0.070313-5.6641 2.2852-7.2656 2.3516-1.5977 5.5-1.3672 7.5938 0.5625 0.011719 0.03125 0.023438 0.0625 0.035156 0.09375 0.11719 0.3125 0.20703 0.63672 0.26953 0.96094 0.007812 0.035156 0.007812 0.066406 0.015624 0.10156 0.32031 1.7852-0.16797 3.6172-1.3359 5.0078-1.1641 1.3867-2.8867 2.1836-4.6992 2.1797z"/>
  <path d="m50.531 56.777c0-0.30078-0.019531-0.60547-0.050781-0.90234-0.085938-0.78125-0.28125-1.543-0.58594-2.2656v-0.003906c-1.625-3.8516-5.9023-5.8477-9.8984-4.6211-3.9961 1.2305-6.4102 5.2891-5.5859 9.3867 0.82812 4.1016 4.625 6.9062 8.7852 6.4961 4.1602-0.41406 7.332-3.9102 7.3359-8.0898zm-8.1328-6.1406h0.003906c0.66016 0.003906 1.3164 0.11328 1.9453 0.32422-0.125-0.003907-0.24609-0.019532-0.37109-0.019532l-0.003906 0.003906c-3.4766 0.003907-6.5703 2.2188-7.6953 5.5117 0.17188-3.2578 2.8594-5.8164 6.125-5.8203zm0 12.27h0.003906c-0.37109 0-0.74219-0.035156-1.1055-0.10156-0.019531-0.003907-0.039063-0.003907-0.058594-0.007813-0.34375-0.070313-0.68359-0.16406-1.0117-0.28906-0.03125-0.011718-0.0625-0.019531-0.09375-0.035156-0.31641-0.12891-0.62109-0.28125-0.91016-0.45703-0.039062-0.023437-0.074218-0.042969-0.11328-0.066406h0.003906c-0.28516-0.18359-0.55469-0.39062-0.80469-0.61719-0.023438-0.023437-0.046875-0.042969-0.070313-0.0625-1.0195-2.6602-0.074219-5.668 2.2812-7.2656s5.5-1.3672 7.5977 0.55859c0.011718 0.03125 0.023437 0.0625 0.035156 0.097656l-0.003906-0.003906c0.11719 0.31641 0.20703 0.63672 0.27344 0.96484 0.007813 0.035156 0.007813 0.066406 0.015625 0.10156 0.31641 1.7812-0.17188 3.6172-1.3359 5.0039-1.168 1.3867-2.8867 2.1875-4.6992 2.1797z"/>
  <path d="m42.223 45.543c2.3359 2.3008 5.8242 2.9766 8.8477 1.7109 3.0234-1.2656 4.9922-4.2227 4.9922-7.5 0-0.30078-0.019531-0.60156-0.050781-0.90234-0.085938-0.77734-0.28125-1.543-0.58594-2.2656v-0.003907 0.003907c-0.94922-2.2461-2.8516-3.9492-5.1875-4.6406-2.3359-0.69141-4.8633-0.30078-6.8789 1.0703-2.0156 1.3672-3.3125 3.5664-3.5312 5.9961-0.22266 2.4258 0.65625 4.8242 2.3945 6.5312zm5.7109 0.33984v0.003907c-0.37109-0.003907-0.74219-0.039063-1.1055-0.10547-0.019531-0.003906-0.039063-0.003906-0.058594-0.007812-0.34375-0.066407-0.68359-0.16406-1.0117-0.28906-0.03125-0.011719-0.0625-0.019531-0.09375-0.035156-0.31641-0.125-0.62109-0.27734-0.91016-0.45703-0.039062-0.023438-0.074218-0.042969-0.11328-0.066407h0.003906c-0.28516-0.17969-0.55469-0.38672-0.80469-0.61328-0.023438-0.023438-0.046875-0.042969-0.070313-0.0625v-0.003906c-1.0195-2.6562-0.074219-5.6641 2.2812-7.2617 2.3555-1.6016 5.5-1.3711 7.5977 0.55469 0.011718 0.03125 0.023437 0.0625 0.035156 0.097657h-0.003906c0.11719 0.3125 0.20703 0.63281 0.27344 0.96094 0.007813 0.035156 0.007813 0.066406 0.015625 0.10156 0.31641 1.7852-0.17188 3.6172-1.3359 5.0078-1.168 1.3867-2.8867 2.1836-4.6992 2.1797zm0-12.27c0.66016 0.003907 1.3164 0.11328 1.9453 0.32812-0.125-0.003906-0.24609-0.019531-0.37109-0.019531h-0.003906c-3.4766 0.007813-6.5703 2.2227-7.6953 5.5156 0.17188-3.2617 2.8594-5.8164 6.125-5.8242z"/>
  <path d="m85.371 63.016c-0.94922-0.33594-1.9531-0.50781-2.9609-0.50391h-4.5898c-0.55469 0-1 0.44531-1 1 0 0.55078 0.44531 1 1 1h4.5938-0.003906c0.78125-0.003907 1.5586 0.12891 2.2969 0.38672 0.25 0.089843 0.52344 0.078124 0.76562-0.035157 0.23828-0.11719 0.42578-0.32031 0.51172-0.57031 0.089844-0.25391 0.074219-0.52734-0.039063-0.76562-0.11719-0.24219-0.32422-0.42578-0.57422-0.51172z"/>
  <path d="m17.301 80.297h7.2695c0.55078 0 1-0.44531 1-1 0-0.55078-0.44922-1-1-1h-7.2695c-0.55469 0-1 0.44922-1 1 0 0.55469 0.44531 1 1 1z"/>
  <path d="m70.547 62.512h-7.2695c-0.55078 0-1 0.44531-1 1 0 0.55078 0.44922 1 1 1h7.2695c0.55469 0 1-0.44922 1-1 0-0.55469-0.44531-1-1-1z"/>
  <path d="m88.883 76.926c0.32813 0 0.63281-0.16016 0.82031-0.42969 1.5898-2.2773 2.0234-5.168 1.1797-7.8164-0.17187-0.52344-0.73437-0.8125-1.2578-0.64453-0.52734 0.16797-0.81641 0.73047-0.64844 1.2578 0.65625 2.0508 0.32031 4.2891-0.91016 6.0586-0.21484 0.30469-0.24219 0.70313-0.070312 1.0352 0.17188 0.32812 0.51562 0.53516 0.88672 0.53906z"/>
  <path d="m31.84 80.297h7.2695c0.55469 0 1-0.44531 1-1 0-0.55078-0.44531-1-1-1h-7.2695c-0.55078 0-1 0.44922-1 1 0 0.55469 0.44922 1 1 1z"/>
  <path d="m46.383 80.297h7.2695c0.55078 0 1-0.44531 1-1 0-0.55078-0.44922-1-1-1h-7.2695c-0.55469 0-1 0.44922-1 1 0 0.55469 0.44531 1 1 1z"/>
  <path d="m60.922 80.297h7.2695c0.55078 0 1-0.44531 1-1 0-0.55078-0.44922-1-1-1h-7.2695c-0.55469 0-1 0.44922-1 1 0 0.55469 0.44531 1 1 1z"/>
  <path d="m75.461 80.297h6.9492c0.12109 0 0.24219-0.003906 0.36328-0.007813v0.003907c0.55078-0.027344 0.97656-0.49219 0.95312-1.043-0.019531-0.55078-0.48437-0.97656-1.0352-0.95703-0.09375 0.003906-0.1875 0.003906-0.28125 0.003906h-6.9492c-0.55078 0-1 0.44922-1 1 0 0.55469 0.44922 1 1 1z"/>
  <path d="m5.5 79.305v3.1914c0 0.55078 0.44922 1 1 1h75.91c6.6758 0 12.09-5.4141 12.09-12.094 0-6.6758-5.4141-12.09-12.09-12.09h-25.293c4.9414-7.8672 5.6484-17.676 1.8945-26.172-3.7578-8.4961-11.488-14.574-20.633-16.215-9.1445-1.6406-18.508 1.3672-24.984 8.0234-6.4766 6.6602-9.2227 16.105-7.3281 25.199 1.8945 9.0938 8.1836 16.652 16.781 20.172 8.5977 3.5195 18.383 2.5391 26.109-2.6211h33.453c0.98047 0 1.9258 0.39062 2.6211 1.0859 0.69531 0.69141 1.0859 1.6367 1.0859 2.6172 0 0.98438-0.39063 1.9297-1.0859 2.6211-0.69531 0.69531-1.6406 1.0859-2.6211 1.082h-75.91c-0.55078 0.003906-1 0.44922-1 1zm2-34.852c0.003906-8.3086 3.9805-16.113 10.703-20.996 6.7227-4.8789 15.379-6.2461 23.277-3.6758 7.9023 2.5703 14.094 8.7656 16.656 16.672 2.5625 7.9023 1.1875 16.555-3.7031 23.273-0.43359 0.59766-0.89453 1.1797-1.3789 1.7344-0.48438 0.55859-0.98828 1.0938-1.5195 1.6055h0.003906c-4.9062 4.7656-11.496 7.4023-18.336 7.3359-6.8359-0.066406-13.375-2.8281-18.188-7.6875s-7.5117-11.422-7.5156-18.262zm74.91 32.652c1.5117 0.003906 2.9648-0.59766 4.0352-1.6641 1.0703-1.0703 1.6758-2.5234 1.6758-4.0391 0-1.5117-0.60547-2.9648-1.6758-4.0352-1.0703-1.0664-2.5234-1.668-4.0352-1.668h-30.793c0.42578-0.36328 0.83594-0.74219 1.2422-1.1328 0.019531-0.019531 0.046875-0.039062 0.066406-0.058594h3.0859l-0.003907 0.003907c0.55078 0 1-0.44922 1-1 0-0.55469-0.44922-1-1-1h-1.2188c0.32813-0.39062 0.64844-0.78906 0.95703-1.1953l26.664-0.003906c5.5703 0 10.09 4.5195 10.09 10.094 0 5.5703-4.5195 10.09-10.09 10.09h-74.91v-1.1992h2.5c0.55078 0 1-0.44531 1-1 0-0.55078-0.44922-1-1-1h-2.5v-1.1914z"/>
 </g>
</svg>
