<?xml version="1.0" encoding="UTF-8"?>
<svg fill="#FF7F00" width="100pt" height="100pt" version="1.1" viewBox="0 0 100 100" xmlns="http://www.w3.org/2000/svg">
 <g>
  <path d="m27.582 8.332v42.516h44.832l0.003907-42.516zm31.5 25.902-8.1836 8.1836-8.1836-8.1836c-2.2656-2.2656-2.2656-5.918 0-8.1836s5.918-2.2656 8.1836 0c2.2656-2.2656 5.918-2.2656 8.1836 0 2.2695 2.2656 2.2695 5.9141 0 8.1836z"/>
  <path d="m86.398 91.668c0.91797 0 1.668-0.73438 1.668-1.668v-80c0-0.91797-0.75-1.668-1.668-1.668h-4.0664v6.8984c0 0.91797-0.75 1.668-1.668 1.668-0.91797 0-1.668-0.75-1.668-1.668l0.003906-6.8984h-3.25v44.184c0 0.91797-0.75 1.668-1.668 1.668h-48.168c-0.91797 0-1.668-0.75-1.668-1.668l0.003906-44.184h-2.918v6.8984c0 0.91797-0.75 1.668-1.668 1.668-0.91797 0-1.668-0.75-1.668-1.668l0.003906-6.8984h-4.3828c-0.93359 0-1.668 0.75-1.668 1.668v80c0 0.93359 0.73438 1.668 1.668 1.668h4.3984v-6.8828c0-0.91797 0.75-1.668 1.668-1.668 0.91797 0 1.668 0.75 1.668 1.668v6.8828h2.8984v-23.535c0-0.91797 0.75-1.668 1.668-1.668h48.168c0.91797 0 1.668 0.75 1.668 1.668l-0.003906 23.535h3.25v-6.8828c0-0.91797 0.75-1.668 1.668-1.668s1.668 0.75 1.668 1.668l-0.003907 6.8828zm-65.066-20.352c0 0.91797-0.75 1.668-1.668 1.668-0.91797 0-1.668-0.75-1.668-1.668v-5.2148c0-0.91797 0.75-1.668 1.668-1.668 0.91797 0 1.668 0.75 1.668 1.668zm0-18.699c0 0.91797-0.75 1.668-1.668 1.668-0.91797 0-1.668-0.75-1.668-1.668v-5.2148c0-0.91797 0.75-1.668 1.668-1.668 0.91797 0 1.668 0.75 1.668 1.668zm0-18.684c0 0.91797-0.75 1.668-1.668 1.668-0.91797 0-1.668-0.75-1.668-1.668v-5.2148c0-0.91797 0.75-1.668 1.668-1.668 0.91797 0 1.668 0.75 1.668 1.668zm57.652-5.2344c0-0.91797 0.75-1.668 1.668-1.668 0.91797 0 1.668 0.75 1.668 1.668v5.2148c0 0.91797-0.75 1.668-1.668 1.668-0.91797 0-1.668-0.75-1.668-1.668zm0 18.699c0-0.91797 0.75-1.668 1.668-1.668 0.91797 0 1.668 0.75 1.668 1.668v5.2148c0 0.91797-0.75 1.668-1.668 1.668-0.91797 0-1.668-0.75-1.668-1.668zm1.6641 25.586c-0.91797 0-1.668-0.75-1.668-1.668v-5.2148c0-0.91797 0.75-1.668 1.668-1.668 0.91797 0 1.668 0.75 1.668 1.668v5.2148c0 0.91797-0.73438 1.668-1.668 1.668z"/>
  <path d="m27.582 69.801h44.832v21.867h-44.832z"/>
 </g>
</svg>
