<?xml version="1.0" encoding="UTF-8"?>
<svg width="100pt" height="100pt" version="1.1" viewBox="0 0 100 100" xmlns="http://www.w3.org/2000/svg">
 <g>
  <path d="m16.816 22.121c0.15234-0.60547 0.91016-2.4258 2.2734-2.8789 1.8164-0.60547 3.0312 1.3633 4.3945 0.91016s2.8789-6.9688 7.1211-4.3945c0.60547 0.45313 1.5156 0.30469 1.9688-0.45312 1.3633-2.1211-2.8789-3.6367-5.4531-2.8789-2.2734 0.75781-3.7891 2.7266-4.6953 4.2422-3.9375-1.8164-7.2734 0.60547-8.332 4.5469-0.45703 1.9688 2.2695 2.7227 2.7227 0.90625z"/>
  <path d="m52.727 88.484c5.7578 0 10.605-4.6953 10.605-10.605 0-5.7578-4.6953-10.605-10.605-10.605-5.7578 0-10.605 4.6953-10.605 10.605 0 5.7578 4.6953 10.605 10.605 10.605zm0-18.18c4.2422 0 7.5742 3.4844 7.5742 7.5742 0 4.2422-3.4844 7.5742-7.5742 7.5742-4.2422 0-7.5742-3.4844-7.5742-7.5742-0.15234-4.2422 3.332-7.5742 7.5742-7.5742z"/>
  <path d="m52.273 65.152h0.75781c0.75781 0 1.5156-0.60547 1.5156-1.5156 0-0.75781-0.60547-1.5156-1.5156-1.5156h-0.75781c-0.75781 0-1.5156 0.60547-1.5156 1.5156 0.15234 0.91016 0.75781 1.5156 1.5156 1.5156z"/>
  <path d="m40 71.668c-0.75781-0.30469-1.5156 0.15234-1.8164 0.91016l-0.30469 0.60547c-0.30469 0.75781 0.15234 1.5156 0.91016 1.8164h0.45313c0.60547 0 1.2109-0.45312 1.3633-1.0625l0.15234-0.75781c0.45313-0.45313 0-1.3633-0.75781-1.5117z"/>
  <path d="m45 87.574c-0.60547-0.45312-1.5156-0.30469-1.9688 0.30469-0.45312 0.60547-0.30469 1.5156 0.30469 1.9688l0.60547 0.45312c0.30469 0.15234 0.60547 0.30469 0.91016 0.30469 0.45313 0 0.91016-0.15234 1.2109-0.60547 0.45312-0.60547 0.30469-1.5156-0.30469-1.9688z"/>
  <path d="m60.305 87.574-0.60547 0.45312c-0.60547 0.45312-0.75781 1.3633-0.30469 1.9688 0.30469 0.45312 0.75781 0.60547 1.2109 0.60547 0.30469 0 0.60547-0.15234 0.91016-0.30469l0.60547-0.45312c0.60547-0.45312 0.75781-1.3633 0.30469-1.9688-0.45703-0.60156-1.3633-0.75391-2.1211-0.30078z"/>
  <path d="m64.695 74.09c0.15234 0.60547 0.75781 1.0625 1.3633 1.0625h0.45312c0.75781-0.30469 1.2109-1.0625 0.91016-1.8164l-0.15234-0.75781c-0.30469-0.75781-1.0625-1.2109-1.8164-0.91016-0.75781 0.30469-1.2109 1.0625-0.91016 1.8164z"/>
  <path d="m49.09 83.031c0.45312 0.30469 0.91016 0.30469 1.3633 0l7.7266-3.9375c0.45312-0.30469 0.75781-0.75781 0.75781-1.2109 0-0.60547-0.30469-1.0625-0.75781-1.2109l-7.7266-3.9453c-0.45312-0.30469-0.91016-0.15234-1.3633 0-0.45312 0.30469-0.75781 0.75781-0.75781 1.2109v7.8789c0 0.45703 0.30469 0.91016 0.75781 1.2148zm2.1211-6.668 3.0312 1.5156-3.0312 1.5156z"/>
  <path d="m96.969 94.547h-5.4531v-15.152h5.4531c0.75781 0 1.5156-0.60547 1.5156-1.5156 0-0.75781-0.60547-1.5156-1.5156-1.5156h-24.395c-0.60547-10.453-9.2422-18.789-19.848-18.789-1.8164 0-3.4844 0.30469-5 0.60547l3.0312-30.605c1.3633-0.45312 2.5742-1.5156 3.332-2.8789 1.0625-1.8164 1.0625-3.9375 0.15234-5.7578 0.30469-1.3633 0-3.6367-0.75781-5.3047-0.75781-1.668-1.8164-2.7266-3.0312-3.1836-0.30469-0.30469-0.60547-0.75781-0.91016-1.0625-0.60547-2.4258-2.4258-4.2422-5-4.6953-2.1211-0.45312-4.3945 0.30469-5.7578 1.8164-0.45312-0.30469-1.0625-0.45312-1.668-0.45312-1.0625-1.5156-2.5742-2.5742-4.3945-2.7266-1.5156-0.30469-3.1836 0.15234-4.3945 1.0625-1.668-1.3633-3.7891-1.668-5.7578-1.0625-2.2734-1.0625-5-0.75781-6.9688 1.0625-1.5156 1.3633-2.2734 3.332-1.9688 5.3047-0.91016 0-1.668 0.30469-2.5742 0.75781-1.9688-0.45312-3.7852 0.15234-5.3008 1.5156-1.3633 1.2109-2.1211 3.0312-2.1211 4.8477-3.7891 3.1836-2.4258 9.2422 1.9688 10.758l4.0898 41.668c0 0.75781 0.75781 1.3633 1.3633 1.3633h22.879c-0.75781 2.1211-1.2109 4.5469-1.2109 6.9688 0 10.91 8.9375 19.848 19.848 19.848h44.395c0.75781 0 1.5156-0.60547 1.5156-1.5156 0-0.75391-0.60547-1.3594-1.5156-1.3594zm-8.1797 0h-10.152v-15.152h10.152zm-44.094-35.152c-0.75781 0.30469-2.4258 1.2109-3.4844 1.9688l0.75781-8.1836c1.2109-1.5156 1.8164-3.332 1.8164-5.3047 0-1.3633-0.30469-2.7266-0.91016-3.7891l1.5156-15.91h3.332zm-14.695-0.30469-0.15234 8.6367h-3.1836l-0.30078-8.6367c1.0625 0.15234 2.2734 0.15234 3.6367 0zm10.305-18.332c-1.8164-1.668-4.3945-2.8789-7.1211-3.4844l0.15234-9.2422h8.1836zm-12.121-4.0898c-0.60547 0-1.2109 0-1.8164 0.15234h-0.30469l-0.15234-8.6367h4.5469l-0.15234 8.4844h-0.30469-1.8164zm-5.1523-8.6367 0.15234 9.2422c-2.7266 0.60547-5.1523 1.8164-7.1211 3.4844l-1.2109-12.727zm0.45312 30.605 0.15234 9.0898h-5l-1.0625-11.516c1.8203 1.0625 3.7891 1.9727 5.9102 2.4258zm7.2734-2.5742c-6.2109 0.91016-15.305-2.1211-15.305-8.1836 0-4.2422 4.6953-7.2734 9.8477-8.1836 6.3633-1.0625 15.605 1.9688 15.605 8.1836 0.003906 4.2422-4.8438 7.4258-10.148 8.1836zm-24.695-37.426c1.5156-0.91016-0.45312-2.5742 1.668-4.5469 2.1172-1.8164 3.1797-0.15234 4.3906-0.90625 2.1211-1.5156 3.4844 0.45312 4.5469-0.91016 0.30469-0.45313 0.45312-1.0625 0.15234-1.668-1.668-3.0312 1.9688-6.3633 4.8477-4.5469 0.45312 0.30469 0.91016 0.30469 1.3633 0.15234 1.3633-0.60547 3.1836-0.15234 4.0898 1.0625 0.60547 0.75781 1.668 0.75781 2.2734 0.15234 1.668-1.8164 4.5469-1.3633 5.6055 0.91016 0.60547 1.2109 1.8164 0.30469 3.1836 1.5156 0.75781 0.60547 1.668 0.30469 2.1211-0.45312 1.668-2.7266 5.9102-1.9688 6.3633 1.3633 0 0.30469 0.30469 0.75781 0.60547 0.91016 1.0625 0.75781 0.91016 1.5156 1.8164 1.8164 0.45312 0.15234 0.91016 0.45312 1.3633 1.0625 0.91016 1.3633 1.0625 3.6367 0.91016 4.2422-0.15234 0.45312-0.15234 0.91016 0 1.3633 1.3633 2.2734-0.30469 5.3047-3.0312 5.3047l-40.453-0.46094c-1.8164 0-2.8789-1.2109-3.332-2.4258-0.30469-1.2109-0.15234-2.8789 1.5156-3.9375zm2.5742 9.3945h3.332l1.5156 15.91c-0.60547 1.2109-0.91016 2.4258-0.91016 3.7891 0 1.9688 0.75781 3.7891 1.8164 5.3047l1.3633 14.547-3.1797-0.007812zm26.816 39.695h-2.7266l0.15234-9.0898c2.1211-0.45312 4.2422-1.3633 5.9102-2.4258l-0.75781 8.0312c-1.2148 1.2109-2.2734 2.8789-2.5781 3.4844zm0.30469 9.6992c0-9.3945 7.5742-16.969 16.969-16.969 9.3945-0.003906 16.969 7.7266 16.969 16.969 0 9.3945-7.5742 16.969-16.969 16.969-9.3945 0.15234-16.969-7.5781-16.969-16.969zm36.668 1.9688h3.332v15.152h-12.727c5.1523-3.1836 8.7852-8.7891 9.3945-15.152z"/>
 </g>
</svg>
